<?xml version="1.0" standalone="no"?>
<!DOCTYPE svg PUBLIC "-//W3C//DTD SVG 20010904//EN"
 "http://www.w3.org/TR/2001/REC-SVG-20010904/DTD/svg10.dtd">
<svg version="1.0" xmlns="http://www.w3.org/2000/svg"
 width="80.000000pt" height="80.000000pt" viewBox="0 0 80.000000 80.000000"
 preserveAspectRatio="xMidYMid meet">
<metadata>
Created by potrace 1.14, written by Peter Selinger 2001-2017
</metadata>
<g transform="translate(0.000000,80.000000) scale(0.100000,-0.100000)"
fill="#000000" stroke="none">
<path d="M215 788 c-3 -7 -4 -168 -3 -357 2 -265 6 -345 16 -349 9 -3 12 70
12 342 l0 346 160 0 160 0 0 -346 c0 -272 3 -345 13 -341 9 3 12 83 12 358 l0
354 -183 3 c-141 2 -184 0 -187 -10z"/>
<path d="M294 706 c-3 -8 -4 -31 -2 -52 3 -37 5 -39 38 -39 l35 0 3 53 3 52
-36 0 c-21 0 -38 -6 -41 -14z m56 -41 c0 -16 -6 -25 -15 -25 -9 0 -15 9 -15
25 0 16 6 25 15 25 9 0 15 -9 15 -25z"/>
<path d="M432 668 l3 -53 35 0 35 0 0 50 0 50 -38 3 -38 3 3 -53z m48 -3 c0
-16 -6 -25 -15 -25 -9 0 -15 9 -15 25 0 16 6 25 15 25 9 0 15 -9 15 -25z"/>
<path d="M0 495 c0 -113 3 -146 13 -143 8 3 13 41 15 131 l3 126 77 3 c108 4
97 22 -15 26 l-93 3 0 -146z"/>
<path d="M617 634 c-16 -16 10 -24 79 -24 l74 0 0 -265 c0 -146 -2 -265 -5
-265 -3 0 -17 8 -31 17 -25 16 -28 15 -70 -7 -49 -27 -59 -43 -44 -71 9 -16
22 -19 83 -19 44 0 78 5 85 12 9 9 12 94 12 320 l0 308 -88 0 c-49 0 -92 -3
-95 -6z m113 -569 c7 -8 19 -15 26 -15 8 0 14 -4 14 -10 0 -6 -28 -10 -65 -10
-37 0 -65 4 -65 10 0 6 9 10 19 10 10 0 21 7 25 15 3 8 12 15 19 15 8 0 20 -7
27 -15z"/>
<path d="M82 508 l3 -53 35 0 35 0 3 53 3 52 -41 0 -41 0 3 -52z m48 -3 c0
-14 -4 -25 -10 -25 -5 0 -10 11 -10 25 0 14 5 25 10 25 6 0 10 -11 10 -25z"/>
<path d="M294 546 c-3 -8 -4 -31 -2 -52 3 -37 5 -39 38 -39 l35 0 3 53 3 52
-36 0 c-21 0 -38 -6 -41 -14z m56 -41 c0 -16 -6 -25 -15 -25 -9 0 -15 9 -15
25 0 16 6 25 15 25 9 0 15 -9 15 -25z"/>
<path d="M432 508 l3 -53 35 0 35 0 0 50 0 50 -38 3 -38 3 3 -53z m48 -3 c0
-16 -6 -25 -15 -25 -9 0 -15 9 -15 25 0 16 6 25 15 25 9 0 15 -9 15 -25z"/>
<path d="M642 508 l3 -53 35 0 35 0 3 53 3 52 -41 0 -41 0 3 -52z m48 -3 c0
-14 -4 -25 -10 -25 -5 0 -10 11 -10 25 0 14 5 25 10 25 6 0 10 -11 10 -25z"/>
<path d="M80 375 c0 -25 14 -33 25 -15 12 20 24 9 27 -25 5 -53 23 -42 26 15
l3 50 -40 0 c-37 0 -41 -2 -41 -25z"/>
<path d="M294 386 c-3 -8 -4 -31 -2 -52 3 -37 5 -39 38 -39 l35 0 3 53 3 52
-36 0 c-21 0 -38 -6 -41 -14z m56 -41 c0 -16 -6 -25 -15 -25 -9 0 -15 9 -15
25 0 16 6 25 15 25 9 0 15 -9 15 -25z"/>
<path d="M432 348 l3 -53 35 0 35 0 0 50 0 50 -38 3 -38 3 3 -53z m48 -3 c0
-16 -6 -25 -15 -25 -9 0 -15 9 -15 25 0 16 6 25 15 25 9 0 15 -9 15 -25z"/>
<path d="M642 348 l3 -53 35 0 35 0 3 53 3 52 -41 0 -41 0 3 -52z m48 -3 c0
-14 -4 -25 -10 -25 -5 0 -10 11 -10 25 0 14 5 25 10 25 6 0 10 -11 10 -25z"/>
<path d="M37 302 c-18 -20 -36 -90 -37 -143 0 -25 7 -42 24 -59 16 -14 26 -36
28 -58 4 -49 28 -55 28 -6 0 26 7 43 25 60 20 18 25 33 25 71 0 115 -48 185
-93 135z m52 -34 c4 -13 11 -44 15 -70 9 -61 -5 -90 -42 -86 -25 3 -27 7 -30
50 -6 93 34 167 57 106z"/>
<path d="M272 228 c3 -7 14 -14 26 -16 20 -3 22 -9 22 -69 0 -47 3 -64 13 -61
7 3 13 28 15 66 l3 62 49 0 49 0 3 -62 c2 -38 8 -63 16 -66 9 -3 12 14 12 61
0 60 2 66 22 69 12 2 23 9 26 16 3 9 -27 12 -128 12 -101 0 -131 -3 -128 -12z"/>
<path d="M642 188 l3 -53 35 0 35 0 3 53 3 52 -41 0 -41 0 3 -52z m48 -3 c0
-14 -4 -25 -10 -25 -5 0 -10 11 -10 25 0 14 5 25 10 25 6 0 10 -11 10 -25z"/>
<path d="M390 150 c0 -5 5 -10 10 -10 6 0 10 5 10 10 0 6 -4 10 -10 10 -5 0
-10 -4 -10 -10z"/>
<path d="M190 25 c0 -27 15 -34 24 -10 4 13 35 15 186 15 113 0 180 4 180 10
0 6 -72 10 -195 10 l-195 0 0 -25z"/>
</g>
</svg>
